# xmcd
#
# Track frame offsets:
#	150
#	15872
#	26590
#	38485
#	51692
#	65220
#	78445
#	91404
#	111255
#	124262
#	136782
#	146357
#	156870
#
# Disc length: 2205 seconds
#
# Revision: 0
# Processed by: cddbd v1.5.2PL0 Copyright (c) Steve Scherf et al.
# Submitted via: EasyCDDAExtractor 11.1.0.1
#
DISCID=ab089b0d
DTITLE=Jeanette Nielsen - Rodeo Hero
DYEAR=1900
DGENRE=country
TTITLE0=Rodeo hero
TTITLE1=Delta down
TTITLE2=Tall tall trees
TTITLE3=No memories
TTITLE4=Seven lonely days
TTITLE5=Texas
TTITLE6=Volvo B 18
TTITLE7=Banks of Ohio
TTITLE8=I'm gonna be a country girl again
TTITLE9=Apple jack
TTITLE10=If I could make a living
TTITLE11=Danny
TTITLE12=Mercedes benz
EXTD=
EXTT0=
EXTT1=
EXTT2=
EXTT3=
EXTT4=
EXTT5=
EXTT6=
EXTT7=
EXTT8=
EXTT9=
EXTT10=
EXTT11=
EXTT12=
PLAYORDER=
